<svg xmlns="http://www.w3.org/2000/svg" viewBox="0 0 1506.8 188.84"><defs><style>.cls-1{fill:#0da7bd;}.cls-2{fill:#0da6bd;}.cls-3{fill:#83d1dd;}.cls-4{fill:#0ea7bd;}.cls-5{fill:#0ba6bd;}.cls-6{fill:#20adc2;}.cls-7{fill:#29b0c4;}.cls-8{fill:#bfe7ed;}</style></defs><g id="Layer_2" data-name="Layer 2"><g id="Layer_1-2" data-name="Layer 1"><path class="cls-1" d="M298.8,0c2.81.68,5.64,1.28,8.42,2.05,7.92,2.18,15.83,4.44,24.33,6.84-7.48,7-13.88,13.19-20.58,19.05-1,.84-3.4.35-5.05,0-34.07-7.24-67.38,10.44-79.13,43-9.32,25.87-4.69,50,14.05,70.11,18.59,20,42.13,26.57,68.41,19.17,26.49-7.46,42.8-25.59,48.54-52.52,4.19-19.67-.27-36.87-13.7-56.2L365.22,37.3a87.61,87.61,0,0,1,16.44,32.6A94.37,94.37,0,0,1,303.26,188c-49.61,6.78-98-28.75-105.4-77.44C189.93,58.51,223.54,10.86,274.39,2c2.51-.44,4.94-1.32,7.41-2Z"/><path class="cls-2" d="M395.8,0c2.66.65,5.28,1.46,8,1.92a93.72,93.72,0,0,1,78.17,92.17c.11,46.25-32.31,85.13-77.59,93.16A94,94,0,0,1,352.86,182c-1.51-.59-2.94-1.41-5.06-2.43,4.69-4,9.58-7.14,13-11.43,5-6.36,10.26-7.3,18.23-6,36.65,5.78,71.24-20.58,76.61-57.45,5.45-37.42-20.41-72.52-57.76-77.45-28.81-3.79-52.15,6.66-67.59,31.17-15.56,24.7-14.43,50.18,1.24,74.89.79,1.24,1.64,2.44,2.67,4a50.14,50.14,0,0,1-19.39,13c-1,.38-3.32-.82-4.11-1.94-10.2-14.52-16.1-30.66-16.67-48.42-1.65-50.61,31.3-90.34,81.35-98.48A18.89,18.89,0,0,0,378.8,0Z"/><path class="cls-3" d="M1506.8,36l-1,0,.24-19.12a.51.51,0,0,1,.79.16Z"/><path class="cls-2" d="M28,182.82H0V54.54H26.42V70.92c10-12.69,22.29-20.15,38.65-20.16S95,55.33,103.12,71.32c1.66-1.81,3.14-3.45,4.64-5.08,15.15-16.4,41.91-20.7,61.47-9.93,12.38,6.81,16.94,18.35,17.18,31.31.57,31.31.26,62.63.3,93.94,0,.29-.24.58-.49,1.14H158.06v-5.52q-.08-38.49-.16-77c0-1.67-.07-3.33-.18-5-.8-12.78-5.92-19.5-16.26-21.37-14.6-2.63-26,2.08-30.36,13.76a57.12,57.12,0,0,0-3.45,19c-.4,23.49-.16,47-.16,70.47v5.66H78.79V177.2q0-38,0-76a52.88,52.88,0,0,0-.42-8C75.47,75,59.27,67.37,43.12,76.88c-11,6.5-15,17.09-15.09,29.21-.22,23.65-.06,47.31-.06,71Z"/><path class="cls-2" d="M589,70.5V5.42h28.43V182.64H591V167c-.7,0-1.18-.12-1.27,0-12.91,19.83-32.34,21.91-53,18.36-22.08-3.8-36.13-17.81-42.69-38.85s-6.76-42.17,2-62.59C512.2,46,561,38.57,589,70.5Zm-71.24,48.72c1,6,1.55,12.21,3.11,18.11,4,15.06,14.76,24.84,28.51,26.52,14.61,1.78,27.2-4.28,34-17.69,9.05-17.81,9.24-36.35,1-54.46-5.5-12.13-15.83-18.13-29.15-18.46-13.57-.34-23.68,5.74-30.35,17.45C519.92,99.47,518.58,109.17,517.76,119.22Z"/><path class="cls-2" d="M1261,125.09a22.63,22.63,0,0,1-4.58,1q-42.23.12-84.43.11h-5.36c-1,19.49,11.36,41.37,40.49,37.55,11.17-1.46,19.15-7.28,23.56-17.64,1.11-2.59,2.53-3.39,5.24-3.32,7.47.17,14.95.06,23.93.06-2.62,6.16-4.24,11.92-7.29,16.79-13.4,21.39-33.91,28.64-57.91,26.82-32.74-2.48-53.83-24.38-56.7-57.68-1.55-18.06.94-35.34,11.18-50.69,14.25-21.39,34.81-30.13,59.87-26.66,24.82,3.44,40.57,18.7,48.58,42,2,5.9,2.5,12.33,3.69,18.51Zm-29.07-18.18c-.35-19-14.78-33.85-32.33-33.71-18.45.14-33,14.81-33.07,33.71Z"/><path class="cls-2" d="M814.92,50.77c37.53-.09,62.62,23.56,65.13,61.22.76,11.27-.09,22.32-3.72,33-9.58,28.17-35.34,44.19-66.47,41.6-35.78-3-58.58-27.09-59.89-63.2-.55-15.26,1.74-29.9,9.5-43.26C770.55,61.06,790.07,50.84,814.92,50.77Zm37.88,67.72c-1.83-7.71-2.81-15.76-5.68-23.06-5.31-13.49-15.58-21.51-30.4-22.14-15-.63-26.2,6.28-32.49,19.71-8.15,17.39-8.07,35.24.66,52.46C791,157.54,801.17,164,815.05,164s23.75-6.51,30.34-18.36C850,137.32,851.58,128.18,852.8,118.49Z"/><path class="cls-4" d="M1016.49,54.35h26.91V73.06c1.4-1.62,1.94-2.14,2.36-2.73,14.84-20.64,39-23.67,60-15.81,15.42,5.77,23.21,18.08,23.53,34,.64,31.27.19,62.56.19,94.2H1101v-5.23q0-36,0-72c0-2.66,0-5.33-.27-8-1.74-21.66-16-27.18-33.42-23C1054.19,77.6,1045.19,90,1045,105.36c-.36,23.82-.15,47.64-.18,71.45,0,1.82,0,3.64,0,5.85h-28.28Z"/><path class="cls-5" d="M917.16,182.82H888.87V54.48h26.69V73.56c1.71-2.12,2.61-3.15,3.42-4.26C937,44.72,970.55,47.73,986.35,58.87c11.73,8.27,15.58,20.33,15.65,33.94.11,25.16,0,50.32,0,75.48v14.37H973.66V177.3c0-23.82.2-47.65-.13-71.47a78.11,78.11,0,0,0-2.89-19.13c-1.95-7.18-7.5-11.12-14.74-12.67-19.25-4.13-36.11,7.85-38.08,27.52-.79,7.93-.6,16-.63,24C917.11,144.47,917.16,163.44,917.16,182.82Z"/><path class="cls-2" d="M748.47,97.6c-9.08,0-17.54.1-26-.13-1.08,0-2.76-1.69-3.05-2.87C716.11,81.05,707,74.41,693.67,73.44s-24.78,3.11-31.27,15.39c-10.15,19.2-10.16,39.13-.8,58.58,6,12.57,18.29,18.2,32,16.42,12.71-1.65,21.69-10.14,25.15-23.77.41-1.6.84-3.2,1.31-5h28.28c-2.79,17.25-9.31,31.85-23.8,42-19.23,13.51-60.22,15.29-82.1-9.81a61.85,61.85,0,0,1-14.23-29.87c-3.07-16.51-2.43-32.95,3.79-48.7,9.21-23.36,26.74-35.85,51.71-37.73,13.67-1,27,.52,39.31,7.07C738.49,66.29,746.82,79.26,748.47,97.6Z"/><path class="cls-2" d="M1262.7,112c1.91-8.24,2.86-16.86,5.93-24.64,7.94-20.18,23.17-32.2,44.63-35.57,15.77-2.48,31.31-1.26,45.72,6.36,15.45,8.18,23.8,21.14,25.29,39.08h-28.12a6.06,6.06,0,0,1-.59-1.29c-2.76-13.48-11.18-20.91-24.67-22.29s-25.62,2.35-32.38,15c-10.72,20-10.66,40.68.06,60.69,6.1,11.4,18.63,16.56,31.55,14.48,13.45-2.17,20.92-10.71,24.49-23.29.49-1.74.82-3.53,1.25-5.44h28.38c-2,13.33-6.37,25.2-15.54,35-13.32,14.17-30.45,17.89-48.89,16.52-33.75-2.51-54.79-25-57.16-60.45Q1262.68,119,1262.7,112Z"/><path class="cls-1" d="M1401.8,75.57h-21.24V54.08h21.1v-38h28.61V54h25.35V75.5h-24.85c-.1,2.08-.26,3.68-.26,5.29q0,32.25,0,64.48c0,1.67,0,3.34.16,5,.52,7.76,3.81,11.13,11.58,11.52,4.3.22,8.62,0,13.28,0v20.91c-11.32,2-22.68,2.71-34,.12s-16.92-8.69-18.64-20.07a96.81,96.81,0,0,1-1-13.93c-.1-22.33,0-44.66,0-67Z"/><path class="cls-6" d="M1506,16.84,1505.77,36c-1-.88-2.61-1.66-2.74-2.65-.37-2.83-.13-5.75-1.09-8.8-1,2.89-2,5.86-3.21,8.66-.52,1.15-1.81,1.95-2.75,2.92a12.69,12.69,0,0,1-2.37-2.75c-1.2-2.63-2.13-5.38-4.13-7.85a49.86,49.86,0,0,1-.08,6.81c-.19,1.31-1.22,2.51-1.87,3.75-.57-1.15-1.58-2.29-1.62-3.47-.14-4.31,0-8.64.09-13,.26-.95.53-1.9.79-2.85,3-1,4.56.11,5.44,3.09,1,3.44,2.39,6.78,4,11.2,1.5-4.28,2.76-7.47,3.71-10.74S1502.51,15.43,1506,16.84Z"/><path class="cls-7" d="M1486.79,16.77c-.26.95-.53,1.9-.79,2.85h-7.16c0,4.66.1,9.08-.08,13.48,0,1-1,2-1.58,3-.72-1-2-2-2.08-3-.24-4.3-.1-8.61-.1-13.11l-6-1.23c0-.54,0-1.09-.07-1.63C1474.74,15.41,1480.79,16.32,1486.79,16.77Z"/><path class="cls-8" d="M1262.7,112q0,7,0,14.07l-1.67-.94.27-13.22Z"/></g></g></svg>